<mxfile host="app.diagrams.net" modified="2021-10-22T09:10:36.514Z" agent="5.0 (Macintosh; Intel Mac OS X 10_15_7) AppleWebKit/537.36 (KHTML, like Gecko) Chrome/86.0.4240.193 Safari/537.36" etag="-hts9JqC18TPgRN72y_q" version="15.5.8" type="github">
  <diagram id="agdpBEZxEgch9MtuI912" name="Page-1">
    <mxGraphModel dx="946" dy="536" grid="1" gridSize="10" guides="1" tooltips="1" connect="1" arrows="1" fold="1" page="1" pageScale="1" pageWidth="827" pageHeight="1169" math="0" shadow="0">
      <root>
        <mxCell id="0" />
        <mxCell id="1" parent="0" />
        <mxCell id="AwQI5jJiA5YNBe5wNe7U-8" style="edgeStyle=orthogonalEdgeStyle;rounded=0;orthogonalLoop=1;jettySize=auto;html=1;exitX=1;exitY=0.5;exitDx=0;exitDy=0;entryX=0;entryY=0.5;entryDx=0;entryDy=0;fillColor=#ffe6cc;strokeColor=#d79b00;" edge="1" parent="1" source="AwQI5jJiA5YNBe5wNe7U-1" target="AwQI5jJiA5YNBe5wNe7U-3">
          <mxGeometry relative="1" as="geometry" />
        </mxCell>
        <mxCell id="AwQI5jJiA5YNBe5wNe7U-9" style="edgeStyle=orthogonalEdgeStyle;rounded=0;orthogonalLoop=1;jettySize=auto;html=1;exitX=1;exitY=0.5;exitDx=0;exitDy=0;entryX=0;entryY=0.5;entryDx=0;entryDy=0;fillColor=#ffe6cc;strokeColor=#d79b00;" edge="1" parent="1" source="AwQI5jJiA5YNBe5wNe7U-1" target="AwQI5jJiA5YNBe5wNe7U-2">
          <mxGeometry relative="1" as="geometry" />
        </mxCell>
        <mxCell id="AwQI5jJiA5YNBe5wNe7U-10" style="edgeStyle=orthogonalEdgeStyle;rounded=0;orthogonalLoop=1;jettySize=auto;html=1;exitX=1;exitY=0.5;exitDx=0;exitDy=0;entryX=0;entryY=0.5;entryDx=0;entryDy=0;fillColor=#ffe6cc;strokeColor=#d79b00;" edge="1" parent="1" source="AwQI5jJiA5YNBe5wNe7U-1" target="AwQI5jJiA5YNBe5wNe7U-4">
          <mxGeometry relative="1" as="geometry" />
        </mxCell>
        <mxCell id="AwQI5jJiA5YNBe5wNe7U-1" value="&lt;pre&gt;GlobalTransactionScanner&lt;/pre&gt;" style="rounded=0;whiteSpace=wrap;html=1;fillColor=#ffe6cc;strokeColor=#d79b00;" vertex="1" parent="1">
          <mxGeometry x="60" y="230" width="220" height="60" as="geometry" />
        </mxCell>
        <mxCell id="AwQI5jJiA5YNBe5wNe7U-12" style="edgeStyle=orthogonalEdgeStyle;rounded=0;orthogonalLoop=1;jettySize=auto;html=1;exitX=1;exitY=0.5;exitDx=0;exitDy=0;entryX=0;entryY=0.5;entryDx=0;entryDy=0;fillColor=#dae8fc;strokeColor=#6c8ebf;" edge="1" parent="1" source="AwQI5jJiA5YNBe5wNe7U-2" target="AwQI5jJiA5YNBe5wNe7U-6">
          <mxGeometry relative="1" as="geometry" />
        </mxCell>
        <mxCell id="AwQI5jJiA5YNBe5wNe7U-2" value="&lt;pre&gt;&lt;pre&gt;AbstractAutoProxyCreator#wrapIfNecessary&lt;/pre&gt;&lt;pre&gt;(2. 作用于Bean初始化后阶段)&lt;/pre&gt;&lt;/pre&gt;" style="rounded=0;whiteSpace=wrap;html=1;fillColor=#ffe6cc;strokeColor=#d79b00;" vertex="1" parent="1">
          <mxGeometry x="350" y="230" width="320" height="60" as="geometry" />
        </mxCell>
        <mxCell id="AwQI5jJiA5YNBe5wNe7U-11" style="edgeStyle=orthogonalEdgeStyle;rounded=0;orthogonalLoop=1;jettySize=auto;html=1;exitX=1;exitY=0.5;exitDx=0;exitDy=0;entryX=0;entryY=0.5;entryDx=0;entryDy=0;fillColor=#dae8fc;strokeColor=#6c8ebf;" edge="1" parent="1" source="AwQI5jJiA5YNBe5wNe7U-3" target="AwQI5jJiA5YNBe5wNe7U-5">
          <mxGeometry relative="1" as="geometry" />
        </mxCell>
        <mxCell id="AwQI5jJiA5YNBe5wNe7U-3" value="&lt;pre&gt;&lt;pre&gt;&lt;pre&gt;InitializingBean#afterPropertiesSet&lt;/pre&gt;&lt;pre&gt;（1. 作用于Bean初始化阶段）&lt;/pre&gt;&lt;/pre&gt;&lt;/pre&gt;" style="rounded=0;whiteSpace=wrap;html=1;fillColor=#ffe6cc;strokeColor=#d79b00;" vertex="1" parent="1">
          <mxGeometry x="351" y="110" width="319" height="60" as="geometry" />
        </mxCell>
        <mxCell id="AwQI5jJiA5YNBe5wNe7U-13" style="edgeStyle=orthogonalEdgeStyle;rounded=0;orthogonalLoop=1;jettySize=auto;html=1;exitX=1;exitY=0.5;exitDx=0;exitDy=0;entryX=0;entryY=0.5;entryDx=0;entryDy=0;fillColor=#dae8fc;strokeColor=#6c8ebf;" edge="1" parent="1" source="AwQI5jJiA5YNBe5wNe7U-4" target="AwQI5jJiA5YNBe5wNe7U-7">
          <mxGeometry relative="1" as="geometry" />
        </mxCell>
        <mxCell id="AwQI5jJiA5YNBe5wNe7U-4" value="&lt;pre&gt;&lt;pre&gt;&lt;pre&gt;&lt;pre&gt;DisposableBean#destroy&lt;/pre&gt;&lt;pre&gt;（3. 作用于Bean销毁阶段）&lt;/pre&gt;&lt;/pre&gt;&lt;/pre&gt;&lt;/pre&gt;" style="rounded=0;whiteSpace=wrap;html=1;fillColor=#ffe6cc;strokeColor=#d79b00;" vertex="1" parent="1">
          <mxGeometry x="351" y="340" width="319" height="60" as="geometry" />
        </mxCell>
        <mxCell id="AwQI5jJiA5YNBe5wNe7U-5" value="初始化 TM RM 客户端" style="rounded=0;whiteSpace=wrap;html=1;fillColor=#dae8fc;strokeColor=#6c8ebf;" vertex="1" parent="1">
          <mxGeometry x="720" y="110" width="400" height="60" as="geometry" />
        </mxCell>
        <mxCell id="AwQI5jJiA5YNBe5wNe7U-6" value="&lt;pre&gt;&lt;pre&gt;&lt;pre&gt;1. 给加了@TwoPhaseBusinessAction注解的方法&lt;/pre&gt;&lt;pre&gt;增加advice即TccActionInterceptor&lt;/pre&gt;&lt;pre&gt;2. 给加了@GlobalTransactional或者@GlobalLock注解的方法&lt;/pre&gt;&lt;pre&gt;增加adivce即GlobalTransactionalInterceptor&lt;/pre&gt;&lt;pre&gt;&lt;br&gt;&lt;/pre&gt;&lt;/pre&gt;&lt;/pre&gt;" style="rounded=0;whiteSpace=wrap;html=1;fillColor=#dae8fc;strokeColor=#6c8ebf;" vertex="1" parent="1">
          <mxGeometry x="720" y="195" width="400" height="130" as="geometry" />
        </mxCell>
        <mxCell id="AwQI5jJiA5YNBe5wNe7U-7" value="&lt;pre&gt;&lt;pre&gt;&lt;pre&gt;关闭 TM RM 客户端&lt;/pre&gt;&lt;/pre&gt;&lt;/pre&gt;" style="rounded=0;whiteSpace=wrap;html=1;fillColor=#dae8fc;strokeColor=#6c8ebf;" vertex="1" parent="1">
          <mxGeometry x="720" y="340" width="400" height="60" as="geometry" />
        </mxCell>
      </root>
    </mxGraphModel>
  </diagram>
</mxfile>
